<svg width="132" height="132" viewBox="0 0 132 132" fill="none" xmlns="http://www.w3.org/2000/svg">
<path d="M42.0568 27.8745C43.1801 26.7508 43.1801 24.9336 42.0568 23.8099L40.6889 22.4469C39.5612 21.3276 37.7376 21.3276 36.6098 22.4469C35.4908 23.5709 35.4908 25.3839 36.6098 26.5079L37.9812 27.8745C39.1093 28.9895 40.9287 28.9895 42.0568 27.8745Z" fill="#83FFA3"/>
<path opacity="0.4" d="M42.0568 27.8745C43.1801 26.7508 43.1801 24.9336 42.0568 23.8099L40.6889 22.4469C39.5612 21.3276 37.7376 21.3276 36.6098 22.4469C35.4908 23.5709 35.4908 25.3839 36.6098 26.5079L37.9812 27.8745C39.1093 28.9895 40.9287 28.9895 42.0568 27.8745Z" fill="white"/>
<path d="M40.1313 25.9662C41.5815 24.5175 41.5815 22.1726 40.1313 20.7239L37.4516 18.0538C35.9977 16.6087 33.6444 16.6087 32.1905 18.0538C30.7384 19.5017 30.7384 21.8482 32.1905 23.2961L34.8772 25.9662C36.3318 27.4028 38.6766 27.4028 40.1313 25.9662Z" fill="#83FFA3"/>
<path d="M36.3959 22.2301C38.8752 19.7723 42.8815 19.7723 45.3608 22.2301L36.3959 31.1666C33.9308 28.6942 33.9308 24.7026 36.3959 22.2301Z" fill="#83FFA3"/>
<path d="M32.7587 39.5579C33.059 39.5579 33.3024 39.3153 33.3024 39.0162C33.3024 38.717 33.059 38.4745 32.7587 38.4745C27.3349 38.4745 22.938 34.0932 22.938 28.6887C22.938 23.2842 27.3349 18.903 32.7587 18.903C32.9627 18.9193 33.1587 18.8202 33.2657 18.6463C33.3728 18.4725 33.3728 18.2535 33.2657 18.0797C33.1587 17.9059 32.9627 17.8067 32.7587 17.823C28.8157 17.7526 25.1415 19.8084 23.1493 23.1997C21.1571 26.5911 21.1571 30.7898 23.1493 34.1812C25.1415 37.5726 28.8157 39.6283 32.7587 39.5579Z" fill="#83FFA3"/>
<path fill-rule="evenodd" clip-rule="evenodd" d="M31.945 54.3972L19.5359 113.112L18.9221 113.094L19.0378 114.779H47.3705L47.2302 112.713H45.3187L45.3433 113.094H36.7817L27.161 85.3237L33.604 54.8481L31.945 54.3972ZM21.2896 113.112L26.9014 86.5049L36.1329 113.112H21.2896Z" fill="#83FFA3"/>
<path fill-rule="evenodd" clip-rule="evenodd" d="M93.7207 54.4148L81.3256 113.112H80.7118L80.8275 114.796H109.157L109.02 112.731H107.105L107.133 113.112H98.5609L88.9401 85.3412L95.3797 54.8656L93.7207 54.4148ZM83.0793 113.112L88.6911 86.5051L97.9296 113.112H83.0793Z" fill="#83FFA3"/>
<path d="M26.2841 83.5554L27.88 88.1582H89.5153L87.923 83.5554H26.2841Z" fill="#83FFA3"/>
<path d="M28.7112 87.0256L27.8799 88.158H89.5153L90.3466 87.0256H28.7112Z" fill="#83FFA3"/>
<path opacity="0.2" d="M28.7112 87.0256L27.8799 88.158H89.5153L90.3466 87.0256H28.7112Z" fill="black"/>
<path d="M38.6266 76.4572H113.909L115 75.3738L18.0873 34.2947L17 35.3781L38.6266 76.4572Z" fill="#83FFA3"/>
<path opacity="0.4" d="M38.6266 76.4572H113.909L115 75.3738L18.0873 34.2947L17 35.3781L38.6266 76.4572Z" fill="black"/>
<path d="M104.332 52.4787L102.243 48.5072L101.932 48.6694L104.021 52.641L104.332 52.4787Z" fill="#83FFA3"/>
<path d="M106.013 55.6714L105.02 53.7831L104.709 53.9454L105.702 55.8336L106.013 55.6714Z" fill="#83FFA3"/>
<path d="M39.7174 75.3738H115L93.3699 34.2947H18.0873L39.7174 75.3738Z" fill="#83FFA3"/>
<path opacity="0.3" d="M47.2864 68.7859L100.567 68.9746L84.8049 39.5964C72.1783 40.4981 53.2665 40.582 32.5799 40.1731L47.2864 68.7859Z" fill="black"/>
<path d="M48.0544 68.9746H100.869L85.6957 40.1555C69.4285 40.7567 52.0073 40.3722 33.2427 39.855C36.1504 47.1174 41.4255 57.6545 48.0544 68.9746Z" fill="white"/>
<g opacity="0.6">
<path d="M91.5671 65.5778C86.603 65.5498 81.6389 65.5265 76.6748 65.5079L60.6986 65.4345L52.6772 65.3961C52.6109 65.3854 52.5622 65.3284 52.5622 65.2615C52.5622 65.1946 52.6109 65.1376 52.6772 65.127L67.5696 65.1969L83.5457 65.2667L91.5671 65.3052C91.6427 65.3052 91.7039 65.3662 91.7039 65.4415C91.7039 65.5168 91.6427 65.5778 91.5671 65.5778Z" fill="#83FFA3"/>
<path d="M53.3331 65.8398C50.1507 59.8053 46.9391 53.7847 43.6983 47.7781C42.763 46.0493 41.8277 44.3205 40.8924 42.5917C40.8082 42.4379 41.0432 42.3016 41.1274 42.4519C44.4009 48.4561 47.6359 54.4767 50.8323 60.5136C51.7512 62.2447 52.6655 63.9747 53.5751 65.7035C53.6558 65.8573 53.4243 65.9936 53.3401 65.8398H53.3331Z" fill="#83FFA3"/>
<path d="M40.731 42.7175C45.7185 42.7455 50.7049 42.7688 55.69 42.7874L71.8556 42.8608L79.8525 42.8993C79.928 42.8993 79.9892 42.9603 79.9892 43.0356C79.9892 43.1108 79.928 43.1719 79.8525 43.1719C74.8649 43.1439 69.8786 43.1206 64.8934 43.102L48.7279 43.0286L40.731 42.9901C40.6555 42.9901 40.5942 42.9291 40.5942 42.8538C40.5942 42.7786 40.6555 42.7175 40.731 42.7175Z" fill="#83FFA3"/>
<path d="M78.909 42.2281C82.1217 48.3303 85.3684 54.4172 88.649 60.489C89.5843 62.2295 90.5266 63.9676 91.4759 65.7034C91.5601 65.8572 91.3251 65.9935 91.2409 65.8397C87.9393 59.7819 84.6658 53.6961 81.4203 47.5823C80.499 45.8442 79.58 44.1049 78.6634 42.3644C78.5793 42.2107 78.8143 42.0744 78.8984 42.2281H78.909Z" fill="#83FFA3"/>
<path d="M73.5988 62.6629L68.1167 51.8916L66.6401 48.9978C66.5595 48.8441 66.7945 48.7043 66.8751 48.8615L72.5325 59.9404L73.8478 62.5091C73.925 62.6664 73.69 62.8027 73.6128 62.6454L73.5988 62.6629Z" fill="#83FFA3"/>
<path d="M86.6112 62.7084L83.4545 56.5224C83.3774 56.3651 83.6124 56.2288 83.6895 56.3826L86.8462 62.5721C86.9234 62.7293 86.6884 62.8656 86.6112 62.7084Z" fill="#83FFA3"/>
<path d="M55.4901 62.6628C52.8631 57.9411 50.5447 53.0553 48.0545 48.2602C47.4442 47.0859 46.8269 45.9117 46.1815 44.7653C46.0973 44.6116 46.3323 44.4753 46.4165 44.629C49.0436 49.3472 51.3654 54.2365 53.8522 59.028C54.4625 60.2058 55.0798 61.3766 55.7251 62.523C55.8093 62.6732 55.5778 62.813 55.4901 62.6593V62.6628Z" fill="#83FFA3"/>
<path d="M69.902 62.628C67.517 57.9553 65.1074 53.2896 62.7294 48.6134L61.9227 47.0267L61.4878 46.1705L61.2738 45.7441C61.2142 45.6288 61.123 45.3072 61.0037 45.2443C60.8281 45.2198 60.6498 45.2198 60.4741 45.2443H59.8042H58.3697C56.2349 45.2233 54.1012 45.2059 51.9687 45.1919C49.8117 45.1919 47.6581 45.1744 45.5011 45.2129C45.4348 45.2022 45.3861 45.1452 45.3861 45.0783C45.3861 45.0114 45.4348 44.9544 45.5011 44.9437C50.7025 44.8529 55.9075 44.9437 61.1054 45.0032C61.1542 45.0025 61.1997 45.0278 61.2247 45.0696C64.1639 50.9026 67.1662 56.7041 70.137 62.5196C70.2176 62.6769 69.9827 62.8132 69.902 62.6559V62.628Z" fill="#83FFA3"/>
<path d="M55.4691 62.5614C56.7493 57.9656 58.275 53.4397 59.7411 48.9033C60.1549 47.6265 60.5665 46.3509 60.9757 45.0764C61.0283 44.9086 61.2913 44.9785 61.2387 45.1463C59.7551 49.798 58.1978 54.4288 56.7703 59.098C56.4196 60.2723 56.0688 61.45 55.7181 62.6348C55.6947 62.7034 55.6216 62.7418 55.5517 62.7222C55.4817 62.7027 55.4393 62.6321 55.455 62.5614H55.4691Z" fill="#83FFA3"/>
<path d="M46.2552 44.9543C49.1523 47.4008 52.2598 49.5676 55.3568 51.7414C58.7099 54.0935 62.091 56.4037 65.3845 58.8326C67.0119 60.0314 68.6218 61.2581 70.165 62.5617C70.2983 62.6735 70.1054 62.8657 69.9721 62.7539C67.0189 60.262 63.8552 58.0253 60.6951 55.8025C57.3666 53.4609 54.003 51.1648 50.7201 48.7568C49.1347 47.5965 47.5634 46.4082 46.0622 45.1466C45.929 45.0312 46.1219 44.8425 46.2552 44.9543Z" fill="#83FFA3"/>
<path d="M70.4106 62.5897C66.3981 62.705 62.3856 62.7504 58.3732 62.7539C57.4052 62.7539 56.4336 62.7539 55.4656 62.733C55.3993 62.7223 55.3506 62.6653 55.3506 62.5984C55.3506 62.5315 55.3993 62.4745 55.4656 62.4638C59.4885 62.5407 63.5326 62.4638 67.545 62.387C68.499 62.366 69.4565 62.3485 70.4106 62.3206C70.4768 62.3312 70.5255 62.3882 70.5255 62.4551C70.5255 62.522 70.4768 62.579 70.4106 62.5897Z" fill="#83FFA3"/>
<path d="M75.9733 62.7538C73.4164 58.0112 71.0629 53.1708 68.5832 48.3827C67.9729 47.1991 67.3533 46.0202 66.7243 44.8459C66.6436 44.6921 66.8786 44.5558 66.9593 44.7096C69.5162 49.4522 71.8696 54.2926 74.3494 59.0807C74.9597 60.2654 75.5734 61.4467 76.2083 62.6175C76.289 62.7713 76.054 62.9076 75.9733 62.7538Z" fill="#83FFA3"/>
<path d="M83.5247 62.6944C81.9253 59.5629 80.3236 56.4327 78.7196 53.3036C77.9199 51.7378 77.1202 50.1721 76.3205 48.6064C75.9277 47.841 75.5384 47.0721 75.149 46.3068C75.0228 46.0551 74.8299 45.4191 74.5563 45.3107C74.3239 45.2746 74.0872 45.2746 73.8548 45.3107H73.0762C71.0419 45.2758 69.0041 45.2373 66.9663 45.3107C66.7944 45.3107 66.7944 45.0451 66.9663 45.0381C69.5512 44.9577 72.1362 45.0381 74.7176 45.0766C74.7664 45.0759 74.8119 45.1012 74.8369 45.143C77.7866 50.969 80.7784 56.7775 83.7492 62.593C83.8298 62.7468 83.5948 62.8866 83.5142 62.7293L83.5247 62.6944Z" fill="#83FFA3"/>
<path d="M75.9522 62.6874C75.4296 56.8544 75.135 51.0074 74.5949 45.1779C74.5773 45.0032 74.8474 45.0032 74.8649 45.1779C75.4051 51.0074 75.6997 56.8544 76.2258 62.6874C76.2258 62.8587 75.9698 62.8587 75.9522 62.6874Z" fill="#83FFA3"/>
<path d="M66.9277 45.0418C71.2769 49.7179 75.7944 54.2334 80.2102 58.8431C81.4144 60.0943 82.6069 61.356 83.7878 62.6281C83.907 62.7539 83.7141 62.9462 83.5949 62.8169C79.2211 58.0987 74.6686 53.5449 70.2107 48.9036C69.0415 47.6874 67.8829 46.4642 66.7348 45.234C66.6156 45.1082 66.8085 44.9159 66.9277 45.0418Z" fill="#83FFA3"/>
<path d="M83.8614 62.6627C81.2765 62.7885 78.6775 62.9003 76.089 62.8269C75.9137 62.8269 75.9137 62.5508 76.089 62.5578C78.6775 62.6277 81.2765 62.5194 83.8614 62.3936C84.0368 62.3936 84.0368 62.6557 83.8614 62.6627Z" fill="#83FFA3"/>
<path d="M79.6911 46.6109C79.8222 46.8269 79.8613 47.086 79.7998 47.3309C79.7333 47.5388 79.5634 47.6975 79.3509 47.7503C78.831 47.835 78.3004 47.6822 77.9059 47.3344C77.495 47.0357 77.263 46.5508 77.2886 46.0448C77.3484 45.6198 77.7289 45.314 78.1584 45.3458C78.4582 45.3798 78.7357 45.5199 78.9405 45.7407C79.0543 45.8453 79.162 45.9561 79.2632 46.0727C79.3606 46.17 79.4317 46.2902 79.4701 46.4222C79.5017 46.5935 79.2387 46.6668 79.2071 46.4956C79.1755 46.3243 78.9791 46.1461 78.8564 46.0238C78.7186 45.8694 78.5518 45.7436 78.3653 45.6533C78.2164 45.587 78.0461 45.5873 77.8973 45.654C77.7486 45.7208 77.6355 45.8477 77.5867 46.0028C77.5259 46.3737 77.6579 46.75 77.9374 47.0024C78.2339 47.31 78.6331 47.4989 79.0598 47.5336C79.2347 47.5583 79.41 47.4909 79.5228 47.3553C79.6114 47.1651 79.5941 46.9426 79.4772 46.7682C79.3965 46.6144 79.6315 46.4781 79.7122 46.6319L79.6911 46.6109Z" fill="#83FFA3"/>
</g>
<path opacity="0.2" d="M18.0873 34.2947L39.7069 75.3738H115L93.3699 34.2947H71.789L82.7881 39.3168H82.8127C88.4245 41.3544 92.9105 44.4753 95.2043 48.3721C100.465 57.2981 92.1985 66.8952 76.7554 69.8379C61.3124 72.7806 44.54 67.9017 39.2895 58.9757C38.1938 57.191 37.6474 55.1253 37.7182 53.0343L36.5853 34.2737L18.0873 34.2947Z" fill="black"/>
<path fill-rule="evenodd" clip-rule="evenodd" d="M106.276 129.116C106.556 129.315 106.879 129.34 107.172 129.185C107.479 129.09 107.778 128.944 108.063 128.75C108.094 128.733 108.115 128.689 108.115 128.639C108.112 128.59 108.09 128.547 108.058 128.529C108.011 128.494 106.887 127.831 106.413 128.169C106.306 128.238 106.225 128.372 106.191 128.536C106.13 128.736 106.164 128.97 106.276 129.116ZM106.484 128.398L106.584 128.349V128.384C107 128.337 107.418 128.427 107.807 128.646C107.295 128.923 106.579 129.165 106.385 128.923C106.356 128.902 106.309 128.833 106.356 128.612C106.376 128.516 106.422 128.438 106.484 128.398Z" fill="#83FFA3"/>
<path fill-rule="evenodd" clip-rule="evenodd" d="M108.02 128.543H108.058C108.074 128.541 108.088 128.534 108.101 128.524C108.124 128.503 108.133 128.47 108.124 128.44C108.124 128.438 108.123 128.436 108.122 128.433C108.09 128.334 107.787 127.402 107.328 127.165C107.211 127.104 107.074 127.093 106.949 127.137C106.82 127.164 106.728 127.279 106.731 127.41C106.74 127.814 107.612 128.426 108.02 128.543ZM107.006 127.278H107.029C107.102 127.258 107.179 127.265 107.248 127.297C107.563 127.559 107.791 127.91 107.902 128.303C107.48 128.106 106.902 127.626 106.902 127.386C106.902 127.363 106.902 127.311 107.006 127.278Z" fill="#83FFA3"/>
</svg>
