<svg width="132" height="132" viewBox="0 0 132 132" fill="none" xmlns="http://www.w3.org/2000/svg">
<rect width="131.511" height="93.6438" rx="4.89" transform="matrix(-1 0 0 1 132 20.3562)" fill="#263238"/>
<rect width="11.0103" height="0.673164" transform="matrix(-1 0 0 1 29.776 18)" fill="#FF7171"/>
<rect width="3.36503" height="0.673164" transform="matrix(-1 0 0 1 39.7129 18)" fill="#FF7171"/>
<rect width="131.511" height="93.6438" rx="4.89" transform="matrix(-1 0 0 1 131.511 20.3562)" fill="#FF7171"/>
<path opacity="0.7" d="M7.66074 23.7222C5.3301 23.7222 3.44073 25.6115 3.44073 27.9422L3.44073 106.414C3.44073 108.745 5.33009 110.634 7.66073 110.634L123.851 110.634C126.181 110.634 128.071 108.745 128.071 106.414V27.9422C128.071 25.6115 126.181 23.7222 123.851 23.7222L7.66074 23.7222Z" fill="white"/>
<path opacity="0.2" d="M91.8123 66.057C99.8364 65.3223 107.894 64.9897 115.952 65.0608C115.877 54.3575 114.9 42.7858 114.039 31.4026L90.381 32.8903C91.2962 46.1718 92.2046 59.4937 91.8123 66.057Z" fill="black"/>
<path d="M91.3582 65.5791C99.382 64.841 107.439 64.5084 115.498 64.5828C115.423 53.8728 114.92 42.7925 114.06 31.4026L89.9199 32.3989C90.8214 45.6804 91.7298 59.009 91.3582 65.5791Z" fill="white"/>
<path opacity="0.2" d="M59.6759 88.857L83.8092 89.8869L84.8139 56.222L61.1486 55.6768L59.6759 88.857Z" fill="black"/>
<path d="M84.8189 56.2332L60.681 55.2063L59.2062 88.3821L83.3441 89.409L84.8189 56.2332Z" fill="white"/>
<path opacity="0.2" d="M5.86988 88.0562L29.8242 84.9664L24.8283 51.6448L1.43135 55.1318L5.86988 88.0562Z" fill="black"/>
<path d="M24.8386 51.6527L0.88559 54.7458L5.32821 87.6673L29.2812 84.5742L24.8386 51.6527Z" fill="white"/>
<path opacity="0.2" d="M88.2202 112.398C92.5968 113.744 103.869 113.953 112.305 113.542C113.51 103.175 113.386 91.5701 113.083 79.8839L89.4176 79.5002C89.9406 87.5244 89.5346 101.802 88.2202 112.398Z" fill="black"/>
<path d="M87.7385 111.913C92.122 113.259 103.394 113.461 111.824 113.051C113.019 102.029 113.437 90.941 113.076 79.8636L88.9359 78.9885C89.4658 87.0396 89.0597 101.317 87.7385 111.913Z" fill="white"/>
<path opacity="0.2" d="M28.8677 62.6914L53.0216 63.2097C53.8336 52.1563 53.5997 40.5981 53.29 29.5515H29.6109C29.8793 41.2982 29.7004 52.5064 28.8677 62.6914Z" fill="black"/>
<path d="M28.3929 62.1931L52.5468 62.7114C53.3542 51.6581 53.5973 40.5913 53.2762 29.511L29.1223 28.9927C29.3838 40.8134 29.1911 52.0149 28.3929 62.1931Z" fill="white"/>
</svg>
