<svg width="132" height="132" viewBox="0 0 132 132" fill="none" xmlns="http://www.w3.org/2000/svg">
<path d="M45.0676 31.0035H127.583C128.941 30.9471 130.243 31.5757 131.085 32.6947C131.928 33.8136 132.209 35.2878 131.842 36.6607L120.851 91.679C120.124 94.8763 117.465 97.1807 114.334 97.3255H31.7577C30.4018 97.3808 29.1022 96.7536 28.2602 95.6374C27.4182 94.5213 27.1351 93.0504 27.4982 91.679L38.4995 36.6607C39.2275 33.4407 41.9147 31.1261 45.0676 31.0035Z" fill="#263238"/>
<path d="M113.619 94.186C115.73 94.0366 117.511 92.4803 118.032 90.3289L129.023 35.3105C129.213 34.5731 129.074 33.7848 128.645 33.1677C128.199 32.6393 127.549 32.3516 126.878 32.3855H44.3015C42.1901 32.535 40.4096 34.0913 39.8887 36.2427L28.8976 91.261C28.7071 91.9985 28.8461 92.7867 29.2755 93.4039C29.7183 93.9362 30.3702 94.2248 31.0427 94.186H113.619Z" fill="white"/>
<path opacity="0.4" d="M51.319 89.782L61.7381 37.6137C61.8567 36.9884 61.7036 36.3402 61.3206 35.8452C60.9375 35.3502 60.3642 35.0599 59.7564 35.053H46.3546C45.3976 35.0607 44.5739 35.7643 44.373 36.7459L33.9539 88.8713C33.8353 89.4966 33.9884 90.1448 34.3714 90.6398C34.7545 91.1348 35.3278 91.4252 35.9356 91.432H49.3374C50.2822 91.4289 51.1017 90.7465 51.319 89.782Z" fill="#407BFF"/>
<path d="M122.148 39.6182L122.598 37.3574H106.05L105.6 39.6182H122.148Z" fill="#407BFF"/>
<path d="M114.508 45.2322L114.957 42.9714H85.9573L85.4977 45.2322H114.508Z" fill="#EBEBEB"/>
<path d="M112.975 50.8362L113.435 48.5754H80.9215L80.472 50.8362H112.975Z" fill="#EBEBEB"/>
<path d="M111.453 56.4499L111.903 54.1892H85.7326L85.2729 56.4499H111.453Z" fill="#EBEBEB"/>
<path d="M117.112 65.5471L117.572 63.2864H107.102L106.652 65.5471H117.112Z" fill="#407BFF"/>
<path d="M109.482 71.1506L109.931 68.8899H97.1834L96.7237 71.1506H109.482Z" fill="#EBEBEB"/>
<path d="M93.6695 71.1506L94.1292 68.8899H81.3709L80.9215 71.1506H93.6695Z" fill="#EBEBEB"/>
<path d="M107.95 76.7649L108.399 74.5042H65.2928L64.8434 76.7649H107.95Z" fill="#EBEBEB"/>
<path d="M106.428 82.3684L106.877 80.1077H74.0061L73.5566 82.3684H106.428Z" fill="#EBEBEB"/>
<path d="M6.51703 96.9934H115.161C118.124 96.9934 120.044 98.7613 119.421 100.926H0C0.612885 98.7613 3.55474 96.9934 6.51703 96.9934Z" fill="#263238"/>
</svg>
