<svg width="172" height="81" viewBox="0 0 172 81" fill="none" xmlns="http://www.w3.org/2000/svg">
<path fill-rule="evenodd" clip-rule="evenodd" d="M164.141 4.72656C164.141 6.65969 165.709 8.22656 167.64 8.22656C169.573 8.22656 171.141 6.65969 171.141 4.72656C171.141 2.79343 169.573 1.22656 167.64 1.22656C165.709 1.22656 164.141 2.79343 164.141 4.72656Z" stroke="#68D585"/>
<path fill-rule="evenodd" clip-rule="evenodd" d="M145.141 4.72656C145.141 6.65969 146.709 8.22656 148.64 8.22656C150.573 8.22656 152.141 6.65969 152.141 4.72656C152.141 2.79343 150.573 1.22656 148.64 1.22656C146.709 1.22656 145.141 2.79343 145.141 4.72656Z" stroke="#68D585"/>
<path fill-rule="evenodd" clip-rule="evenodd" d="M127.141 4.72656C127.141 6.65969 128.709 8.22656 130.64 8.22656C132.573 8.22656 134.141 6.65969 134.141 4.72656C134.141 2.79343 132.573 1.22656 130.64 1.22656C128.709 1.22656 127.141 2.79343 127.141 4.72656Z" stroke="#68D585"/>
<path fill-rule="evenodd" clip-rule="evenodd" d="M109.141 4.72656C109.141 6.65969 110.707 8.22656 112.64 8.22656C114.573 8.22656 116.141 6.65969 116.141 4.72656C116.141 2.79343 114.573 1.22656 112.64 1.22656C110.707 1.22656 109.141 2.79343 109.141 4.72656Z" stroke="#68D585"/>
<path fill-rule="evenodd" clip-rule="evenodd" d="M91.1406 4.72656C91.1406 6.65969 92.7075 8.22656 94.6406 8.22656C96.5738 8.22656 98.1406 6.65969 98.1406 4.72656C98.1406 2.79343 96.5738 1.22656 94.6406 1.22656C92.7075 1.22656 91.1406 2.79343 91.1406 4.72656Z" stroke="#68D585"/>
<path fill-rule="evenodd" clip-rule="evenodd" d="M73.1406 4.72656C73.1406 6.65969 74.7075 8.22656 76.6406 8.22656C78.5738 8.22656 80.1406 6.65969 80.1406 4.72656C80.1406 2.79343 78.5738 1.22656 76.6406 1.22656C74.7075 1.22656 73.1406 2.79343 73.1406 4.72656Z" stroke="#68D585"/>
<path fill-rule="evenodd" clip-rule="evenodd" d="M55.1406 4.72656C55.1406 6.65969 56.7075 8.22656 58.6393 8.22656C60.5738 8.22656 62.1406 6.65969 62.1406 4.72656C62.1406 2.79343 60.5738 1.22656 58.6393 1.22656C56.7075 1.22656 55.1406 2.79343 55.1406 4.72656Z" stroke="#68D585"/>
<path fill-rule="evenodd" clip-rule="evenodd" d="M37.1406 4.72656C37.1406 6.65969 38.7085 8.22656 40.64 8.22656C42.5741 8.22656 44.1406 6.65969 44.1406 4.72656C44.1406 2.79343 42.5741 1.22656 40.64 1.22656C38.7085 1.22656 37.1406 2.79343 37.1406 4.72656Z" stroke="#68D585"/>
<path fill-rule="evenodd" clip-rule="evenodd" d="M19.1406 4.72656C19.1406 6.65969 20.7085 8.22656 22.64 8.22656C24.5727 8.22656 26.1406 6.65969 26.1406 4.72656C26.1406 2.79343 24.5727 1.22656 22.64 1.22656C20.7085 1.22656 19.1406 2.79343 19.1406 4.72656Z" stroke="#68D585"/>
<path fill-rule="evenodd" clip-rule="evenodd" d="M1.14062 4.72656C1.14062 6.65969 2.70852 8.22656 4.63996 8.22656C6.57273 8.22656 8.14062 6.65969 8.14062 4.72656C8.14062 2.79343 6.57273 1.22656 4.63996 1.22656C2.70852 1.22656 1.14062 2.79343 1.14062 4.72656Z" stroke="#68D585"/>
<path fill-rule="evenodd" clip-rule="evenodd" d="M164.141 22.7266C164.141 24.6597 165.709 26.2266 167.64 26.2266C169.573 26.2266 171.141 24.6597 171.141 22.7266C171.141 20.7934 169.573 19.2266 167.64 19.2266C165.709 19.2266 164.141 20.7934 164.141 22.7266Z" stroke="#68D585"/>
<path fill-rule="evenodd" clip-rule="evenodd" d="M145.141 22.7266C145.141 24.6597 146.709 26.2266 148.64 26.2266C150.573 26.2266 152.141 24.6597 152.141 22.7266C152.141 20.7934 150.573 19.2266 148.64 19.2266C146.709 19.2266 145.141 20.7934 145.141 22.7266Z" stroke="#68D585"/>
<path fill-rule="evenodd" clip-rule="evenodd" d="M127.141 22.7266C127.141 24.6597 128.709 26.2266 130.64 26.2266C132.573 26.2266 134.141 24.6597 134.141 22.7266C134.141 20.7934 132.573 19.2266 130.64 19.2266C128.709 19.2266 127.141 20.7934 127.141 22.7266Z" stroke="#68D585"/>
<path fill-rule="evenodd" clip-rule="evenodd" d="M109.141 22.7266C109.141 24.6597 110.707 26.2266 112.64 26.2266C114.573 26.2266 116.141 24.6597 116.141 22.7266C116.141 20.7934 114.573 19.2266 112.64 19.2266C110.707 19.2266 109.141 20.7934 109.141 22.7266Z" stroke="#68D585"/>
<path fill-rule="evenodd" clip-rule="evenodd" d="M91.1406 22.7266C91.1406 24.6597 92.7075 26.2266 94.6406 26.2266C96.5738 26.2266 98.1406 24.6597 98.1406 22.7266C98.1406 20.7934 96.5738 19.2266 94.6406 19.2266C92.7075 19.2266 91.1406 20.7934 91.1406 22.7266Z" stroke="#68D585"/>
<path fill-rule="evenodd" clip-rule="evenodd" d="M73.1406 22.7266C73.1406 24.6597 74.7075 26.2266 76.6406 26.2266C78.5738 26.2266 80.1406 24.6597 80.1406 22.7266C80.1406 20.7934 78.5738 19.2266 76.6406 19.2266C74.7075 19.2266 73.1406 20.7934 73.1406 22.7266Z" stroke="#68D585"/>
<path fill-rule="evenodd" clip-rule="evenodd" d="M55.1406 22.7266C55.1406 24.6597 56.7075 26.2266 58.6393 26.2266C60.5738 26.2266 62.1406 24.6597 62.1406 22.7266C62.1406 20.7934 60.5738 19.2266 58.6393 19.2266C56.7075 19.2266 55.1406 20.7934 55.1406 22.7266Z" stroke="#68D585"/>
<path fill-rule="evenodd" clip-rule="evenodd" d="M37.1406 22.7266C37.1406 24.6597 38.7085 26.2266 40.64 26.2266C42.5741 26.2266 44.1406 24.6597 44.1406 22.7266C44.1406 20.7934 42.5741 19.2266 40.64 19.2266C38.7085 19.2266 37.1406 20.7934 37.1406 22.7266Z" stroke="#68D585"/>
<path fill-rule="evenodd" clip-rule="evenodd" d="M19.1406 22.7266C19.1406 24.6597 20.7085 26.2266 22.64 26.2266C24.5727 26.2266 26.1406 24.6597 26.1406 22.7266C26.1406 20.7934 24.5727 19.2266 22.64 19.2266C20.7085 19.2266 19.1406 20.7934 19.1406 22.7266Z" stroke="#68D585"/>
<path fill-rule="evenodd" clip-rule="evenodd" d="M1.14062 22.7266C1.14062 24.6597 2.70852 26.2266 4.63996 26.2266C6.57273 26.2266 8.14062 24.6597 8.14062 22.7266C8.14062 20.7934 6.57273 19.2266 4.63996 19.2266C2.70852 19.2266 1.14062 20.7934 1.14062 22.7266Z" stroke="#68D585"/>
<path fill-rule="evenodd" clip-rule="evenodd" d="M164.141 40.7266C164.141 42.6597 165.709 44.2266 167.64 44.2266C169.573 44.2266 171.141 42.6597 171.141 40.7266C171.141 38.7934 169.573 37.2266 167.64 37.2266C165.709 37.2266 164.141 38.7934 164.141 40.7266Z" stroke="#68D585"/>
<path fill-rule="evenodd" clip-rule="evenodd" d="M145.141 40.7266C145.141 42.6597 146.709 44.2266 148.64 44.2266C150.573 44.2266 152.141 42.6597 152.141 40.7266C152.141 38.7934 150.573 37.2266 148.64 37.2266C146.709 37.2266 145.141 38.7934 145.141 40.7266Z" stroke="#68D585"/>
<path fill-rule="evenodd" clip-rule="evenodd" d="M127.141 40.7266C127.141 42.6597 128.709 44.2266 130.64 44.2266C132.573 44.2266 134.141 42.6597 134.141 40.7266C134.141 38.7934 132.573 37.2266 130.64 37.2266C128.709 37.2266 127.141 38.7934 127.141 40.7266Z" stroke="#68D585"/>
<path fill-rule="evenodd" clip-rule="evenodd" d="M109.141 40.7266C109.141 42.6597 110.707 44.2266 112.64 44.2266C114.573 44.2266 116.141 42.6597 116.141 40.7266C116.141 38.7934 114.573 37.2266 112.64 37.2266C110.707 37.2266 109.141 38.7934 109.141 40.7266Z" stroke="#68D585"/>
<path fill-rule="evenodd" clip-rule="evenodd" d="M91.1406 40.7266C91.1406 42.6597 92.7075 44.2266 94.6406 44.2266C96.5738 44.2266 98.1406 42.6597 98.1406 40.7266C98.1406 38.7934 96.5738 37.2266 94.6406 37.2266C92.7075 37.2266 91.1406 38.7934 91.1406 40.7266Z" stroke="#68D585"/>
<path fill-rule="evenodd" clip-rule="evenodd" d="M73.1406 40.7266C73.1406 42.6597 74.7075 44.2266 76.6406 44.2266C78.5738 44.2266 80.1406 42.6597 80.1406 40.7266C80.1406 38.7934 78.5738 37.2266 76.6406 37.2266C74.7075 37.2266 73.1406 38.7934 73.1406 40.7266Z" stroke="#68D585"/>
<path fill-rule="evenodd" clip-rule="evenodd" d="M55.1406 40.7266C55.1406 42.6597 56.7075 44.2266 58.6393 44.2266C60.5738 44.2266 62.1406 42.6597 62.1406 40.7266C62.1406 38.7934 60.5738 37.2266 58.6393 37.2266C56.7075 37.2266 55.1406 38.7934 55.1406 40.7266Z" stroke="#68D585"/>
<path fill-rule="evenodd" clip-rule="evenodd" d="M37.1406 40.7266C37.1406 42.6597 38.7085 44.2266 40.64 44.2266C42.5741 44.2266 44.1406 42.6597 44.1406 40.7266C44.1406 38.7934 42.5741 37.2266 40.64 37.2266C38.7085 37.2266 37.1406 38.7934 37.1406 40.7266Z" stroke="#68D585"/>
<path fill-rule="evenodd" clip-rule="evenodd" d="M19.1406 40.7266C19.1406 42.6597 20.7085 44.2266 22.64 44.2266C24.5727 44.2266 26.1406 42.6597 26.1406 40.7266C26.1406 38.7934 24.5727 37.2266 22.64 37.2266C20.7085 37.2266 19.1406 38.7934 19.1406 40.7266Z" stroke="#68D585"/>
<path fill-rule="evenodd" clip-rule="evenodd" d="M1.14062 40.7266C1.14062 42.6597 2.70852 44.2266 4.63996 44.2266C6.57273 44.2266 8.14062 42.6597 8.14062 40.7266C8.14062 38.7934 6.57273 37.2266 4.63996 37.2266C2.70852 37.2266 1.14062 38.7934 1.14062 40.7266Z" stroke="#68D585"/>
<path fill-rule="evenodd" clip-rule="evenodd" d="M164.141 58.7266C164.141 60.6597 165.709 62.2266 167.64 62.2266C169.573 62.2266 171.141 60.6597 171.141 58.7266C171.141 56.7934 169.573 55.2266 167.64 55.2266C165.709 55.2266 164.141 56.7934 164.141 58.7266Z" stroke="#68D585"/>
<path fill-rule="evenodd" clip-rule="evenodd" d="M145.141 58.7266C145.141 60.6597 146.709 62.2266 148.64 62.2266C150.573 62.2266 152.141 60.6597 152.141 58.7266C152.141 56.7934 150.573 55.2266 148.64 55.2266C146.709 55.2266 145.141 56.7934 145.141 58.7266Z" stroke="#68D585"/>
<path fill-rule="evenodd" clip-rule="evenodd" d="M127.141 58.7266C127.141 60.6597 128.709 62.2266 130.64 62.2266C132.573 62.2266 134.141 60.6597 134.141 58.7266C134.141 56.7934 132.573 55.2266 130.64 55.2266C128.709 55.2266 127.141 56.7934 127.141 58.7266Z" stroke="#68D585"/>
<path fill-rule="evenodd" clip-rule="evenodd" d="M109.141 58.7266C109.141 60.6597 110.707 62.2266 112.64 62.2266C114.573 62.2266 116.141 60.6597 116.141 58.7266C116.141 56.7934 114.573 55.2266 112.64 55.2266C110.707 55.2266 109.141 56.7934 109.141 58.7266Z" stroke="#68D585"/>
<path fill-rule="evenodd" clip-rule="evenodd" d="M91.1406 58.7266C91.1406 60.6597 92.7075 62.2266 94.6406 62.2266C96.5738 62.2266 98.1406 60.6597 98.1406 58.7266C98.1406 56.7934 96.5738 55.2266 94.6406 55.2266C92.7075 55.2266 91.1406 56.7934 91.1406 58.7266Z" stroke="#68D585"/>
<path fill-rule="evenodd" clip-rule="evenodd" d="M73.1406 58.7266C73.1406 60.6597 74.7075 62.2266 76.6406 62.2266C78.5738 62.2266 80.1406 60.6597 80.1406 58.7266C80.1406 56.7934 78.5738 55.2266 76.6406 55.2266C74.7075 55.2266 73.1406 56.7934 73.1406 58.7266Z" stroke="#68D585"/>
<path fill-rule="evenodd" clip-rule="evenodd" d="M55.1406 58.7266C55.1406 60.6597 56.7075 62.2266 58.6393 62.2266C60.5738 62.2266 62.1406 60.6597 62.1406 58.7266C62.1406 56.7934 60.5738 55.2266 58.6393 55.2266C56.7075 55.2266 55.1406 56.7934 55.1406 58.7266Z" stroke="#68D585"/>
<path fill-rule="evenodd" clip-rule="evenodd" d="M37.1406 58.7266C37.1406 60.6597 38.7085 62.2266 40.64 62.2266C42.5741 62.2266 44.1406 60.6597 44.1406 58.7266C44.1406 56.7934 42.5741 55.2266 40.64 55.2266C38.7085 55.2266 37.1406 56.7934 37.1406 58.7266Z" stroke="#68D585"/>
<path fill-rule="evenodd" clip-rule="evenodd" d="M19.1406 58.7266C19.1406 60.6597 20.7085 62.2266 22.64 62.2266C24.5727 62.2266 26.1406 60.6597 26.1406 58.7266C26.1406 56.7934 24.5727 55.2266 22.64 55.2266C20.7085 55.2266 19.1406 56.7934 19.1406 58.7266Z" stroke="#68D585"/>
<path fill-rule="evenodd" clip-rule="evenodd" d="M1.14062 58.7266C1.14062 60.6597 2.70852 62.2266 4.63996 62.2266C6.57273 62.2266 8.14062 60.6597 8.14062 58.7266C8.14062 56.7934 6.57273 55.2266 4.63996 55.2266C2.70852 55.2266 1.14062 56.7934 1.14062 58.7266Z" stroke="#68D585"/>
<path fill-rule="evenodd" clip-rule="evenodd" d="M164.141 76.7266C164.141 78.6597 165.709 80.2266 167.64 80.2266C169.573 80.2266 171.141 78.6597 171.141 76.7266C171.141 74.7934 169.573 73.2266 167.64 73.2266C165.709 73.2266 164.141 74.7934 164.141 76.7266Z" stroke="#68D585"/>
<path fill-rule="evenodd" clip-rule="evenodd" d="M145.141 76.7266C145.141 78.6597 146.709 80.2266 148.64 80.2266C150.573 80.2266 152.141 78.6597 152.141 76.7266C152.141 74.7934 150.573 73.2266 148.64 73.2266C146.709 73.2266 145.141 74.7934 145.141 76.7266Z" stroke="#68D585"/>
<path fill-rule="evenodd" clip-rule="evenodd" d="M127.141 76.7266C127.141 78.6597 128.709 80.2266 130.64 80.2266C132.573 80.2266 134.141 78.6597 134.141 76.7266C134.141 74.7934 132.573 73.2266 130.64 73.2266C128.709 73.2266 127.141 74.7934 127.141 76.7266Z" stroke="#68D585"/>
<path fill-rule="evenodd" clip-rule="evenodd" d="M109.141 76.7266C109.141 78.6597 110.707 80.2266 112.64 80.2266C114.573 80.2266 116.141 78.6597 116.141 76.7266C116.141 74.7934 114.573 73.2266 112.64 73.2266C110.707 73.2266 109.141 74.7934 109.141 76.7266Z" stroke="#68D585"/>
<path fill-rule="evenodd" clip-rule="evenodd" d="M91.1406 76.7266C91.1406 78.6597 92.7075 80.2266 94.6406 80.2266C96.5738 80.2266 98.1406 78.6597 98.1406 76.7266C98.1406 74.7934 96.5738 73.2266 94.6406 73.2266C92.7075 73.2266 91.1406 74.7934 91.1406 76.7266Z" stroke="#68D585"/>
<path fill-rule="evenodd" clip-rule="evenodd" d="M73.1406 76.7266C73.1406 78.6597 74.7075 80.2266 76.6406 80.2266C78.5738 80.2266 80.1406 78.6597 80.1406 76.7266C80.1406 74.7934 78.5738 73.2266 76.6406 73.2266C74.7075 73.2266 73.1406 74.7934 73.1406 76.7266Z" stroke="#68D585"/>
<path fill-rule="evenodd" clip-rule="evenodd" d="M55.1406 76.7266C55.1406 78.6597 56.7075 80.2266 58.6393 80.2266C60.5738 80.2266 62.1406 78.6597 62.1406 76.7266C62.1406 74.7934 60.5738 73.2266 58.6393 73.2266C56.7075 73.2266 55.1406 74.7934 55.1406 76.7266Z" stroke="#68D585"/>
<path fill-rule="evenodd" clip-rule="evenodd" d="M37.1406 76.7266C37.1406 78.6597 38.7085 80.2266 40.64 80.2266C42.5741 80.2266 44.1406 78.6597 44.1406 76.7266C44.1406 74.7934 42.5741 73.2266 40.64 73.2266C38.7085 73.2266 37.1406 74.7934 37.1406 76.7266Z" stroke="#68D585"/>
<path fill-rule="evenodd" clip-rule="evenodd" d="M19.1406 76.7266C19.1406 78.6597 20.7085 80.2266 22.64 80.2266C24.5727 80.2266 26.1406 78.6597 26.1406 76.7266C26.1406 74.7934 24.5727 73.2266 22.64 73.2266C20.7085 73.2266 19.1406 74.7934 19.1406 76.7266Z" stroke="#68D585"/>
<path fill-rule="evenodd" clip-rule="evenodd" d="M1.14062 76.7266C1.14062 78.6597 2.70852 80.2266 4.63996 80.2266C6.57273 80.2266 8.14062 78.6597 8.14062 76.7266C8.14062 74.7934 6.57273 73.2266 4.63996 73.2266C2.70852 73.2266 1.14062 74.7934 1.14062 76.7266Z" stroke="#68D585"/>
</svg>
