<svg display="none" xmlns="http://www.w3.org/2000/svg">
    <symbol viewBox="0 0 17 16" id="twitter">
        <path d="M17 2.34467C16.3625 2.65395 15.6896 2.84725 14.9812 2.96323C15.6896 2.49931 16.2563 1.76477 16.5042 0.875599C15.8313 1.30086 15.0875 1.61014 14.2729 1.80343C13.6354 1.0689 12.7146 0.60498 11.7229 0.60498C9.81042 0.60498 8.25208 2.30601 8.25208 4.39364C8.25208 4.70292 8.2875 4.97354 8.35833 5.24416C5.48958 5.08952 2.90417 3.58178 1.16875 1.2622C0.885417 1.84209 0.708333 2.46065 0.708333 3.15653C0.708333 4.47096 1.31042 5.63075 2.26667 6.32663C1.7 6.28797 1.16875 6.13333 0.672917 5.86271V5.90137C0.672917 7.75704 1.87708 9.30343 3.47083 9.65137C3.1875 9.72869 2.86875 9.76735 2.55 9.76735C2.3375 9.76735 2.08958 9.72869 1.87708 9.69003C2.3375 11.1978 3.6125 12.3189 5.13542 12.3189C3.93125 13.3241 2.44375 13.9426 0.814583 13.9426C0.53125 13.9426 0.247917 13.9426 0 13.9039C1.55833 14.9864 3.36458 15.605 5.34792 15.605C11.7583 15.605 15.2646 9.80601 15.2646 4.78024C15.2646 4.6256 15.2646 4.4323 15.2646 4.27766C15.9375 3.77508 16.5396 3.11787 17 2.34467Z"/>
    </symbol>
    <symbol viewBox="0 0 18 19" id="facebook">
        <path d="M17.25 0.60498H0.75C0.335786 0.60498 0 0.940767 0 1.35498V17.855C0 18.2692 0.335786 18.605 0.75 18.605H9.61436V11.6344H7.26862V8.91788H9.61436V6.9145C9.61436 4.58958 11.0343 3.32363 13.1083 3.32363C14.1018 3.32363 14.9556 3.39759 15.2044 3.43065V5.86032L13.766 5.86097C12.6381 5.86097 12.4197 6.39696 12.4197 7.18348V8.91788H15.1097L14.7595 11.6344H12.4197V18.605H17.25C17.6642 18.605 18 18.2692 18 17.855V1.35498C18 0.940767 17.6642 0.60498 17.25 0.60498Z"/>
    </symbol>
    <symbol viewBox="0 0 18 19" id="instagram">
        <path fill-rule="evenodd" clip-rule="evenodd" d="M5.28937 0.65898C6.24937 0.61548 6.55575 0.60498 9 0.60498C11.4443 0.60498 11.7506 0.61548 12.7106 0.65898C14.1739 0.72573 15.4583 1.08423 16.4895 2.11548C17.5211 3.14711 17.8792 4.43186 17.946 5.89436C17.9895 6.85436 18 7.16073 18 9.60498C18 12.0492 17.9895 12.3556 17.946 13.3156C17.8792 14.7789 17.5208 16.0632 16.4895 17.0945C15.4579 18.1261 14.1727 18.4842 12.7106 18.551C11.7506 18.5945 11.4443 18.605 9 18.605C6.55575 18.605 6.24937 18.5945 5.28937 18.551C3.82612 18.4842 2.54175 18.1257 1.5105 17.0945C0.478875 16.0629 0.12075 14.7781 0.054 13.3156C0.0105 12.3556 0 12.0492 0 9.60498C0 7.16073 0.0105 6.85436 0.054 5.89436C0.12075 4.43111 0.47925 3.14673 1.5105 2.11548C2.54212 1.08386 3.82687 0.72573 5.28937 0.65898ZM12.6368 2.27898C11.6876 2.23548 11.403 2.22648 9 2.22648C6.597 2.22648 6.31238 2.23586 5.36325 2.27898C4.33913 2.32586 3.3885 2.53098 2.65725 3.26223C1.926 3.99348 1.72088 4.94411 1.674 5.96823C1.6305 6.91736 1.6215 7.20198 1.6215 9.60498C1.6215 12.008 1.63087 12.2926 1.674 13.2417C1.72088 14.2659 1.926 15.2165 2.65725 15.9477C3.3885 16.679 4.33913 16.8841 5.36325 16.931C6.312 16.9745 6.59663 16.9835 9 16.9835C11.4034 16.9835 11.688 16.9741 12.6368 16.931C13.6609 16.8841 14.6115 16.679 15.3427 15.9477C16.074 15.2165 16.2791 14.2659 16.326 13.2417C16.3695 12.2926 16.3785 12.008 16.3785 9.60498C16.3785 7.20198 16.3691 6.91736 16.326 5.96823C16.2791 4.94411 16.074 3.99348 15.3427 3.26223C14.6115 2.53098 13.6609 2.32586 12.6368 2.27898Z"/>
        <path fill-rule="evenodd" clip-rule="evenodd" d="M4.90912 10.0142C4.90912 7.52901 6.9236 5.51416 9.40912 5.51416C11.8946 5.51416 13.9091 7.52864 13.9091 10.0142C13.9091 12.4997 11.8946 14.5142 9.40912 14.5142C6.9236 14.5142 4.90912 12.4993 4.90912 10.0142ZM6.48799 10.0142C6.48799 11.6274 7.79592 12.9353 9.40912 12.9353C11.0223 12.9353 12.3302 11.6274 12.3302 10.0142C12.3302 8.40097 11.0223 7.09303 9.40912 7.09303C7.79592 7.09303 6.48799 8.40097 6.48799 10.0142Z"/>
        <circle cx="13.5" cy="5.10496" r="1.22727"/>
    </symbol>
    <symbol viewBox="0 0 18 19" id="linkedin">
        <path fill-rule="evenodd" clip-rule="evenodd" d="M0.75 0.60498H17.25C17.6625 0.60498 18 0.94248 18 1.35498V17.855C18 18.2675 17.6625 18.605 17.25 18.605H0.75C0.3375 18.605 0 18.2675 0 17.855V1.35498C0 0.94248 0.3375 0.60498 0.75 0.60498ZM2.6625 15.9425H5.325V7.35498H2.6625V15.9425ZM4.0125 6.19248C3.15 6.19248 2.475 5.51748 2.475 4.65498C2.475 3.79248 3.15 3.11748 4.0125 3.11748C4.875 3.11748 5.55 3.79248 5.55 4.65498C5.55 5.47998 4.875 6.19248 4.0125 6.19248ZM12.675 15.9425H15.3V11.2175C15.3 8.89248 14.8125 7.12998 12.1125 7.12998C10.8375 7.12998 9.9375 7.84248 9.6 8.51748H9.5625V7.35498H7.0125V15.9425H9.675V11.705C9.675 10.58 9.9 9.49248 11.2875 9.49248C12.675 9.49248 12.675 10.7675 12.675 11.78V15.9425Z"/>
    </symbol>
</svg>